STARTFONT 2.1
COMMENT Recovered from cptfon.ast (MIT CADR textual AST font source)
FONT MIT-CADR-CPTFON
SIZE 12 72 72
FONTBOUNDINGBOX 7 12 0 -2
STARTPROPERTIES 2
FONT_ASCENT 10
FONT_DESCENT 2
ENDPROPERTIES
CHARS 128
STARTCHAR C0000
ENCODING -1 0
SWIDTH 667 0
DWIDTH 8 0
BBX 3 12 2 -2
BITMAP
00
00
00
00
E0
E0
E0
00
00
00
00
00
ENDCHAR
STARTCHAR C0001
ENCODING -1 1
SWIDTH 667 0
DWIDTH 8 0
BBX 5 12 1 -2
BITMAP
00
00
20
20
20
20
20
A8
70
20
00
00
ENDCHAR
STARTCHAR C0002
ENCODING -1 2
SWIDTH 667 0
DWIDTH 8 0
BBX 6 12 1 -2
BITMAP
00
00
00
00
74
88
88
88
88
74
00
00
ENDCHAR
STARTCHAR C0003
ENCODING -1 3
SWIDTH 667 0
DWIDTH 8 0
BBX 6 12 1 -2
BITMAP
00
00
78
84
84
F8
84
84
84
F8
80
80
ENDCHAR
STARTCHAR C0004
ENCODING -1 4
SWIDTH 667 0
DWIDTH 8 0
BBX 6 12 1 -2
BITMAP
00
00
00
00
30
48
84
00
00
00
00
00
ENDCHAR
STARTCHAR C0005
ENCODING -1 5
SWIDTH 667 0
DWIDTH 8 0
BBX 6 12 1 -2
BITMAP
00
00
00
00
00
FC
04
04
00
00
00
00
ENDCHAR
STARTCHAR C0006
ENCODING -1 6
SWIDTH 667 0
DWIDTH 8 0
BBX 4 12 2 -2
BITMAP
00
00
00
00
70
80
F0
80
70
00
00
00
ENDCHAR
STARTCHAR C0007
ENCODING -1 7
SWIDTH 667 0
DWIDTH 8 0
BBX 6 12 1 -2
BITMAP
00
00
00
00
FC
48
48
48
48
48
00
00
ENDCHAR
STARTCHAR C0008
ENCODING -1 8
SWIDTH 667 0
DWIDTH 8 0
BBX 6 12 1 -2
BITMAP
00
00
80
80
40
20
30
48
84
84
00
00
ENDCHAR
STARTCHAR C0009
ENCODING -1 9
SWIDTH 667 0
DWIDTH 8 0
BBX 5 12 1 -2
BITMAP
00
00
88
50
20
50
88
88
88
70
00
00
ENDCHAR
STARTCHAR C000A
ENCODING -1 10
SWIDTH 667 0
DWIDTH 8 0
BBX 6 12 1 -2
BITMAP
00
38
40
40
20
30
48
84
84
78
00
00
ENDCHAR
STARTCHAR C000B
ENCODING -1 11
SWIDTH 667 0
DWIDTH 8 0
BBX 5 12 1 -2
BITMAP
00
00
20
70
A8
20
20
20
20
20
00
00
ENDCHAR
STARTCHAR C000C
ENCODING -1 12
SWIDTH 667 0
DWIDTH 8 0
BBX 5 12 1 -2
BITMAP
00
00
00
20
20
F8
20
20
F8
00
00
00
ENDCHAR
STARTCHAR C000D
ENCODING -1 13
SWIDTH 667 0
DWIDTH 8 0
BBX 5 12 1 -2
BITMAP
00
00
00
70
A8
F8
A8
70
00
00
00
00
ENDCHAR
STARTCHAR C000E
ENCODING -1 14
SWIDTH 667 0
DWIDTH 8 0
BBX 5 12 1 -2
BITMAP
00
00
00
00
50
A8
A8
50
00
00
00
00
ENDCHAR
STARTCHAR C000F
ENCODING -1 15
SWIDTH 667 0
DWIDTH 8 0
BBX 5 12 1 -2
BITMAP
00
60
10
08
08
78
88
88
88
70
00
00
ENDCHAR
STARTCHAR C0010
ENCODING -1 16
SWIDTH 667 0
DWIDTH 8 0
BBX 6 12 1 -2
BITMAP
00
00
00
7C
80
80
80
7C
00
00
00
00
ENDCHAR
STARTCHAR C0011
ENCODING -1 17
SWIDTH 667 0
DWIDTH 8 0
BBX 6 12 1 -2
BITMAP
00
00
00
F8
04
04
04
F8
00
00
00
00
ENDCHAR
STARTCHAR C0012
ENCODING -1 18
SWIDTH 667 0
DWIDTH 8 0
BBX 5 12 1 -2
BITMAP
00
00
00
70
88
88
88
88
00
00
00
00
ENDCHAR
STARTCHAR C0013
ENCODING -1 19
SWIDTH 667 0
DWIDTH 8 0
BBX 5 12 1 -2
BITMAP
00
00
00
88
88
88
88
70
00
00
00
00
ENDCHAR
STARTCHAR C0014
ENCODING -1 20
SWIDTH 667 0
DWIDTH 8 0
BBX 6 12 1 -2
BITMAP
00
84
84
84
84
FC
84
48
48
30
00
00
ENDCHAR
STARTCHAR C0015
ENCODING -1 21
SWIDTH 667 0
DWIDTH 8 0
BBX 6 12 1 -2
BITMAP
00
FC
04
04
04
7C
04
04
04
FC
00
00
ENDCHAR
STARTCHAR C0016
ENCODING -1 22
SWIDTH 667 0
DWIDTH 8 0
BBX 6 12 1 -2
BITMAP
00
00
00
78
CC
B4
CC
78
00
00
00
00
ENDCHAR
STARTCHAR C0017
ENCODING -1 23
SWIDTH 667 0
DWIDTH 8 0
BBX 6 12 1 -2
BITMAP
00
00
10
08
FC
08
10
20
40
FC
40
20
ENDCHAR
STARTCHAR C0018
ENCODING -1 24
SWIDTH 667 0
DWIDTH 8 0
BBX 6 12 1 -2
BITMAP
00
00
00
20
40
FC
40
20
00
00
00
00
ENDCHAR
STARTCHAR C0019
ENCODING -1 25
SWIDTH 667 0
DWIDTH 8 0
BBX 6 12 1 -2
BITMAP
00
00
00
10
08
FC
08
10
00
00
00
00
ENDCHAR
STARTCHAR C001A
ENCODING -1 26
SWIDTH 667 0
DWIDTH 8 0
BBX 6 12 1 -2
BITMAP
00
00
04
08
FC
10
20
FC
40
80
00
00
ENDCHAR
STARTCHAR C001B
ENCODING -1 27
SWIDTH 667 0
DWIDTH 8 0
BBX 5 12 1 -2
BITMAP
00
00
20
20
50
88
50
20
20
00
00
00
ENDCHAR
STARTCHAR C001C
ENCODING -1 28
SWIDTH 667 0
DWIDTH 8 0
BBX 4 12 2 -2
BITMAP
00
10
20
40
80
40
20
10
00
F0
00
00
ENDCHAR
STARTCHAR C001D
ENCODING -1 29
SWIDTH 667 0
DWIDTH 8 0
BBX 4 12 2 -2
BITMAP
00
80
40
20
10
20
40
80
00
F0
00
00
ENDCHAR
STARTCHAR C001E
ENCODING -1 30
SWIDTH 667 0
DWIDTH 8 0
BBX 6 12 1 -2
BITMAP
00
00
00
FC
00
FC
00
FC
00
00
00
00
ENDCHAR
STARTCHAR C001F
ENCODING -1 31
SWIDTH 667 0
DWIDTH 8 0
BBX 6 12 1 -2
BITMAP
00
00
00
00
84
48
30
00
00
00
00
00
ENDCHAR
STARTCHAR C0020
ENCODING -1 32
SWIDTH 667 0
DWIDTH 8 0
BBX 1 12 0 -2
BITMAP
00
00
00
00
00
00
00
00
00
00
00
00
ENDCHAR
STARTCHAR C0021
ENCODING -1 33
SWIDTH 667 0
DWIDTH 8 0
BBX 1 12 3 -2
BITMAP
00
80
80
80
80
80
80
80
00
80
00
00
ENDCHAR
STARTCHAR C0022
ENCODING -1 34
SWIDTH 667 0
DWIDTH 8 0
BBX 3 12 2 -2
BITMAP
A0
A0
A0
A0
00
00
00
00
00
00
00
00
ENDCHAR
STARTCHAR C0023
ENCODING -1 35
SWIDTH 667 0
DWIDTH 8 0
BBX 6 12 1 -2
BITMAP
00
48
48
FC
48
48
48
FC
48
48
00
00
ENDCHAR
STARTCHAR C0024
ENCODING -1 36
SWIDTH 667 0
DWIDTH 8 0
BBX 5 12 1 -2
BITMAP
20
70
A8
A8
A0
70
28
A8
70
20
00
00
ENDCHAR
STARTCHAR C0025
ENCODING -1 37
SWIDTH 667 0
DWIDTH 8 0
BBX 6 12 1 -2
BITMAP
00
7C
C4
C4
08
10
20
40
8C
8C
00
00
ENDCHAR
STARTCHAR C0026
ENCODING -1 38
SWIDTH 667 0
DWIDTH 8 0
BBX 6 12 1 -2
BITMAP
00
60
90
90
A0
40
A4
98
90
6C
00
00
ENDCHAR
STARTCHAR C0027
ENCODING -1 39
SWIDTH 667 0
DWIDTH 8 0
BBX 3 12 1 -2
BITMAP
60
60
60
C0
00
00
00
00
00
00
00
00
ENDCHAR
STARTCHAR C0028
ENCODING -1 40
SWIDTH 667 0
DWIDTH 8 0
BBX 3 12 2 -2
BITMAP
20
40
40
80
80
80
80
80
40
40
20
00
ENDCHAR
STARTCHAR C0029
ENCODING -1 41
SWIDTH 667 0
DWIDTH 8 0
BBX 3 12 2 -2
BITMAP
80
40
40
20
20
20
20
20
40
40
80
00
ENDCHAR
STARTCHAR C002A
ENCODING -1 42
SWIDTH 667 0
DWIDTH 8 0
BBX 5 12 1 -2
BITMAP
00
00
20
A8
70
20
70
A8
20
00
00
00
ENDCHAR
STARTCHAR C002B
ENCODING -1 43
SWIDTH 667 0
DWIDTH 8 0
BBX 5 12 1 -2
BITMAP
00
00
00
20
20
F8
20
20
00
00
00
00
ENDCHAR
STARTCHAR C002C
ENCODING -1 44
SWIDTH 667 0
DWIDTH 8 0
BBX 3 12 1 -2
BITMAP
00
00
00
00
00
00
00
00
60
60
60
C0
ENDCHAR
STARTCHAR C002D
ENCODING -1 45
SWIDTH 667 0
DWIDTH 8 0
BBX 6 12 1 -2
BITMAP
00
00
00
00
00
FC
00
00
00
00
00
00
ENDCHAR
STARTCHAR C002E
ENCODING -1 46
SWIDTH 667 0
DWIDTH 8 0
BBX 2 12 3 -2
BITMAP
00
00
00
00
00
00
00
00
C0
C0
00
00
ENDCHAR
STARTCHAR C002F
ENCODING -1 47
SWIDTH 667 0
DWIDTH 8 0
BBX 6 12 1 -2
BITMAP
00
00
04
0C
18
30
60
C0
80
00
00
00
ENDCHAR
STARTCHAR C0030
ENCODING -1 48
SWIDTH 667 0
DWIDTH 8 0
BBX 6 12 1 -2
BITMAP
00
78
84
84
8C
94
A4
C4
84
78
00
00
ENDCHAR
STARTCHAR C0031
ENCODING -1 49
SWIDTH 667 0
DWIDTH 8 0
BBX 3 12 2 -2
BITMAP
00
40
C0
40
40
40
40
40
40
E0
00
00
ENDCHAR
STARTCHAR C0032
ENCODING -1 50
SWIDTH 667 0
DWIDTH 8 0
BBX 6 12 1 -2
BITMAP
00
78
84
84
04
08
30
40
80
FC
00
00
ENDCHAR
STARTCHAR C0033
ENCODING -1 51
SWIDTH 667 0
DWIDTH 8 0
BBX 6 12 1 -2
BITMAP
00
78
84
84
04
38
04
84
84
78
00
00
ENDCHAR
STARTCHAR C0034
ENCODING -1 52
SWIDTH 667 0
DWIDTH 8 0
BBX 6 12 1 -2
BITMAP
00
08
18
28
48
88
FC
08
08
08
00
00
ENDCHAR
STARTCHAR C0035
ENCODING -1 53
SWIDTH 667 0
DWIDTH 8 0
BBX 6 12 1 -2
BITMAP
00
FC
80
80
F8
04
04
04
84
78
00
00
ENDCHAR
STARTCHAR C0036
ENCODING -1 54
SWIDTH 667 0
DWIDTH 8 0
BBX 6 12 1 -2
BITMAP
00
38
40
80
80
F8
84
84
84
78
00
00
ENDCHAR
STARTCHAR C0037
ENCODING -1 55
SWIDTH 667 0
DWIDTH 8 0
BBX 6 12 1 -2
BITMAP
00
FC
04
0C
38
38
20
60
40
40
00
00
ENDCHAR
STARTCHAR C0038
ENCODING -1 56
SWIDTH 667 0
DWIDTH 8 0
BBX 6 12 1 -2
BITMAP
00
78
84
84
84
78
84
84
84
78
00
00
ENDCHAR
STARTCHAR C0039
ENCODING -1 57
SWIDTH 667 0
DWIDTH 8 0
BBX 6 12 1 -2
BITMAP
00
78
84
84
84
7C
04
04
08
70
00
00
ENDCHAR
STARTCHAR C003A
ENCODING -1 58
SWIDTH 667 0
DWIDTH 8 0
BBX 2 12 3 -2
BITMAP
00
00
00
00
C0
C0
00
00
C0
C0
00
00
ENDCHAR
STARTCHAR C003B
ENCODING -1 59
SWIDTH 667 0
DWIDTH 8 0
BBX 3 12 1 -2
BITMAP
00
00
00
00
60
60
00
00
60
60
60
C0
ENDCHAR
STARTCHAR C003C
ENCODING -1 60
SWIDTH 667 0
DWIDTH 8 0
BBX 4 12 2 -2
BITMAP
00
00
10
20
40
80
40
20
10
00
00
00
ENDCHAR
STARTCHAR C003D
ENCODING -1 61
SWIDTH 667 0
DWIDTH 8 0
BBX 6 12 1 -2
BITMAP
00
00
00
00
FC
00
00
FC
00
00
00
00
ENDCHAR
STARTCHAR C003E
ENCODING -1 62
SWIDTH 667 0
DWIDTH 8 0
BBX 4 12 2 -2
BITMAP
00
00
80
40
20
10
20
40
80
00
00
00
ENDCHAR
STARTCHAR C003F
ENCODING -1 63
SWIDTH 667 0
DWIDTH 8 0
BBX 6 12 1 -2
BITMAP
00
78
84
84
08
10
20
20
00
20
00
00
ENDCHAR
STARTCHAR C0040
ENCODING -1 64
SWIDTH 667 0
DWIDTH 8 0
BBX 6 12 1 -2
BITMAP
00
00
78
84
BC
A4
A4
BC
80
78
00
00
ENDCHAR
STARTCHAR C0041
ENCODING -1 65
SWIDTH 667 0
DWIDTH 8 0
BBX 6 12 1 -2
BITMAP
00
78
84
84
84
FC
84
84
84
84
00
00
ENDCHAR
STARTCHAR C0042
ENCODING -1 66
SWIDTH 667 0
DWIDTH 8 0
BBX 6 12 1 -2
BITMAP
00
F8
84
84
84
F8
84
84
84
F8
00
00
ENDCHAR
STARTCHAR C0043
ENCODING -1 67
SWIDTH 667 0
DWIDTH 8 0
BBX 6 12 1 -2
BITMAP
00
78
84
84
80
80
80
84
84
78
00
00
ENDCHAR
STARTCHAR C0044
ENCODING -1 68
SWIDTH 667 0
DWIDTH 8 0
BBX 6 12 1 -2
BITMAP
00
F8
44
44
44
44
44
44
44
F8
00
00
ENDCHAR
STARTCHAR C0045
ENCODING -1 69
SWIDTH 667 0
DWIDTH 8 0
BBX 6 12 1 -2
BITMAP
00
FC
80
80
80
F8
80
80
80
FC
00
00
ENDCHAR
STARTCHAR C0046
ENCODING -1 70
SWIDTH 667 0
DWIDTH 8 0
BBX 6 12 1 -2
BITMAP
00
FC
80
80
80
F8
80
80
80
80
00
00
ENDCHAR
STARTCHAR C0047
ENCODING -1 71
SWIDTH 667 0
DWIDTH 8 0
BBX 6 12 1 -2
BITMAP
00
78
84
84
80
80
9C
84
84
78
00
00
ENDCHAR
STARTCHAR C0048
ENCODING -1 72
SWIDTH 667 0
DWIDTH 8 0
BBX 6 12 1 -2
BITMAP
00
84
84
84
84
FC
84
84
84
84
00
00
ENDCHAR
STARTCHAR C0049
ENCODING -1 73
SWIDTH 667 0
DWIDTH 8 0
BBX 5 12 1 -2
BITMAP
00
F8
20
20
20
20
20
20
20
F8
00
00
ENDCHAR
STARTCHAR C004A
ENCODING -1 74
SWIDTH 667 0
DWIDTH 8 0
BBX 6 12 1 -2
BITMAP
00
04
04
04
04
04
04
84
84
78
00
00
ENDCHAR
STARTCHAR C004B
ENCODING -1 75
SWIDTH 667 0
DWIDTH 8 0
BBX 6 12 1 -2
BITMAP
00
84
88
90
A0
C0
A0
90
88
84
00
00
ENDCHAR
STARTCHAR C004C
ENCODING -1 76
SWIDTH 667 0
DWIDTH 8 0
BBX 6 12 1 -2
BITMAP
00
80
80
80
80
80
80
80
80
FC
00
00
ENDCHAR
STARTCHAR C004D
ENCODING -1 77
SWIDTH 667 0
DWIDTH 8 0
BBX 6 12 1 -2
BITMAP
00
84
CC
B4
B4
84
84
84
84
84
00
00
ENDCHAR
STARTCHAR C004E
ENCODING -1 78
SWIDTH 667 0
DWIDTH 8 0
BBX 6 12 1 -2
BITMAP
00
84
C4
A4
94
8C
84
84
84
84
00
00
ENDCHAR
STARTCHAR C004F
ENCODING -1 79
SWIDTH 667 0
DWIDTH 8 0
BBX 6 12 1 -2
BITMAP
00
78
84
84
84
84
84
84
84
78
00
00
ENDCHAR
STARTCHAR C0050
ENCODING -1 80
SWIDTH 667 0
DWIDTH 8 0
BBX 6 12 1 -2
BITMAP
00
F8
84
84
84
F8
80
80
80
80
00
00
ENDCHAR
STARTCHAR C0051
ENCODING -1 81
SWIDTH 667 0
DWIDTH 8 0
BBX 6 12 1 -2
BITMAP
00
78
84
84
84
84
84
94
88
74
00
00
ENDCHAR
STARTCHAR C0052
ENCODING -1 82
SWIDTH 667 0
DWIDTH 8 0
BBX 6 12 1 -2
BITMAP
00
F8
84
84
84
F8
A0
90
88
84
00
00
ENDCHAR
STARTCHAR C0053
ENCODING -1 83
SWIDTH 667 0
DWIDTH 8 0
BBX 6 12 1 -2
BITMAP
00
78
84
80
80
78
04
84
84
78
00
00
ENDCHAR
STARTCHAR C0054
ENCODING -1 84
SWIDTH 667 0
DWIDTH 8 0
BBX 5 12 1 -2
BITMAP
00
F8
20
20
20
20
20
20
20
20
00
00
ENDCHAR
STARTCHAR C0055
ENCODING -1 85
SWIDTH 667 0
DWIDTH 8 0
BBX 6 12 1 -2
BITMAP
00
84
84
84
84
84
84
84
84
78
00
00
ENDCHAR
STARTCHAR C0056
ENCODING -1 86
SWIDTH 667 0
DWIDTH 8 0
BBX 6 12 1 -2
BITMAP
00
84
84
84
84
84
48
48
48
30
00
00
ENDCHAR
STARTCHAR C0057
ENCODING -1 87
SWIDTH 667 0
DWIDTH 8 0
BBX 6 12 1 -2
BITMAP
00
84
84
84
84
84
B4
B4
CC
84
00
00
ENDCHAR
STARTCHAR C0058
ENCODING -1 88
SWIDTH 667 0
DWIDTH 8 0
BBX 6 12 1 -2
BITMAP
00
84
84
84
48
30
48
84
84
84
00
00
ENDCHAR
STARTCHAR C0059
ENCODING -1 89
SWIDTH 667 0
DWIDTH 8 0
BBX 5 12 1 -2
BITMAP
00
88
88
88
50
20
20
20
20
20
00
00
ENDCHAR
STARTCHAR C005A
ENCODING -1 90
SWIDTH 667 0
DWIDTH 8 0
BBX 6 12 1 -2
BITMAP
00
FC
04
08
10
78
20
40
80
FC
00
00
ENDCHAR
STARTCHAR C005B
ENCODING -1 91
SWIDTH 667 0
DWIDTH 8 0
BBX 4 12 3 -2
BITMAP
F0
80
80
80
80
80
80
80
80
80
F0
00
ENDCHAR
STARTCHAR C005C
ENCODING -1 92
SWIDTH 667 0
DWIDTH 8 0
BBX 6 12 1 -2
BITMAP
00
00
80
C0
60
30
18
0C
04
00
00
00
ENDCHAR
STARTCHAR C005D
ENCODING -1 93
SWIDTH 667 0
DWIDTH 8 0
BBX 4 12 1 -2
BITMAP
F0
10
10
10
10
10
10
10
10
10
F0
00
ENDCHAR
STARTCHAR C005E
ENCODING -1 94
SWIDTH 667 0
DWIDTH 8 0
BBX 6 12 1 -2
BITMAP
30
48
84
00
00
00
00
00
00
00
00
00
ENDCHAR
STARTCHAR C005F
ENCODING -1 95
SWIDTH 667 0
DWIDTH 8 0
BBX 6 12 1 -2
BITMAP
00
00
00
00
00
00
00
00
00
00
00
FC
ENDCHAR
STARTCHAR C0060
ENCODING -1 96
SWIDTH 667 0
DWIDTH 8 0
BBX 3 12 4 -2
BITMAP
C0
C0
C0
60
00
00
00
00
00
00
00
00
ENDCHAR
STARTCHAR C0061
ENCODING -1 97
SWIDTH 667 0
DWIDTH 8 0
BBX 6 12 1 -2
BITMAP
00
00
00
00
78
04
7C
84
84
7C
00
00
ENDCHAR
STARTCHAR C0062
ENCODING -1 98
SWIDTH 667 0
DWIDTH 8 0
BBX 6 12 1 -2
BITMAP
00
80
80
80
F8
84
84
84
84
F8
00
00
ENDCHAR
STARTCHAR C0063
ENCODING -1 99
SWIDTH 667 0
DWIDTH 8 0
BBX 6 12 1 -2
BITMAP
00
00
00
00
78
84
80
80
84
78
00
00
ENDCHAR
STARTCHAR C0064
ENCODING -1 100
SWIDTH 667 0
DWIDTH 8 0
BBX 6 12 1 -2
BITMAP
00
04
04
04
7C
84
84
84
84
7C
00
00
ENDCHAR
STARTCHAR C0065
ENCODING -1 101
SWIDTH 667 0
DWIDTH 8 0
BBX 6 12 1 -2
BITMAP
00
00
00
00
78
84
F8
80
80
78
00
00
ENDCHAR
STARTCHAR C0066
ENCODING -1 102
SWIDTH 667 0
DWIDTH 8 0
BBX 6 12 1 -2
BITMAP
00
38
44
40
F0
40
40
40
40
40
00
00
ENDCHAR
STARTCHAR C0067
ENCODING -1 103
SWIDTH 667 0
DWIDTH 8 0
BBX 6 12 1 -2
BITMAP
00
00
00
00
78
84
84
84
7C
04
04
78
ENDCHAR
STARTCHAR C0068
ENCODING -1 104
SWIDTH 667 0
DWIDTH 8 0
BBX 6 12 1 -2
BITMAP
00
80
80
80
F8
84
84
84
84
84
00
00
ENDCHAR
STARTCHAR C0069
ENCODING -1 105
SWIDTH 667 0
DWIDTH 8 0
BBX 1 12 3 -2
BITMAP
00
00
80
00
80
80
80
80
80
80
00
00
ENDCHAR
STARTCHAR C006A
ENCODING -1 106
SWIDTH 667 0
DWIDTH 8 0
BBX 6 12 1 -2
BITMAP
00
00
04
00
04
04
04
04
04
04
84
78
ENDCHAR
STARTCHAR C006B
ENCODING -1 107
SWIDTH 667 0
DWIDTH 8 0
BBX 6 12 1 -2
BITMAP
00
80
80
84
88
90
E0
90
88
84
00
00
ENDCHAR
STARTCHAR C006C
ENCODING -1 108
SWIDTH 667 0
DWIDTH 8 0
BBX 1 12 3 -2
BITMAP
00
80
80
80
80
80
80
80
80
80
00
00
ENDCHAR
STARTCHAR C006D
ENCODING -1 109
SWIDTH 667 0
DWIDTH 8 0
BBX 6 12 1 -2
BITMAP
00
00
00
00
D8
B4
B4
84
84
84
00
00
ENDCHAR
STARTCHAR C006E
ENCODING -1 110
SWIDTH 667 0
DWIDTH 8 0
BBX 6 12 1 -2
BITMAP
00
00
00
00
B8
C4
84
84
84
84
00
00
ENDCHAR
STARTCHAR C006F
ENCODING -1 111
SWIDTH 667 0
DWIDTH 8 0
BBX 6 12 1 -2
BITMAP
00
00
00
00
78
84
84
84
84
78
00
00
ENDCHAR
STARTCHAR C0070
ENCODING -1 112
SWIDTH 667 0
DWIDTH 8 0
BBX 6 12 1 -2
BITMAP
00
00
00
00
F8
84
84
84
84
F8
80
80
ENDCHAR
STARTCHAR C0071
ENCODING -1 113
SWIDTH 667 0
DWIDTH 8 0
BBX 6 12 1 -2
BITMAP
00
00
00
00
7C
84
84
84
84
7C
04
04
ENDCHAR
STARTCHAR C0072
ENCODING -1 114
SWIDTH 667 0
DWIDTH 8 0
BBX 6 12 1 -2
BITMAP
00
00
00
00
B8
C4
80
80
80
80
00
00
ENDCHAR
STARTCHAR C0073
ENCODING -1 115
SWIDTH 667 0
DWIDTH 8 0
BBX 6 12 1 -2
BITMAP
00
00
00
00
7C
80
78
04
04
F8
00
00
ENDCHAR
STARTCHAR C0074
ENCODING -1 116
SWIDTH 667 0
DWIDTH 8 0
BBX 5 12 1 -2
BITMAP
00
00
20
20
F8
20
20
20
28
18
00
00
ENDCHAR
STARTCHAR C0075
ENCODING -1 117
SWIDTH 667 0
DWIDTH 8 0
BBX 6 12 1 -2
BITMAP
00
00
00
00
84
84
84
84
84
78
00
00
ENDCHAR
STARTCHAR C0076
ENCODING -1 118
SWIDTH 667 0
DWIDTH 8 0
BBX 6 12 1 -2
BITMAP
00
00
00
00
84
84
84
48
48
30
00
00
ENDCHAR
STARTCHAR C0077
ENCODING -1 119
SWIDTH 667 0
DWIDTH 8 0
BBX 6 12 1 -2
BITMAP
00
00
00
00
84
84
84
B4
B4
D8
00
00
ENDCHAR
STARTCHAR C0078
ENCODING -1 120
SWIDTH 667 0
DWIDTH 8 0
BBX 6 12 1 -2
BITMAP
00
00
00
00
84
48
30
48
84
84
00
00
ENDCHAR
STARTCHAR C0079
ENCODING -1 121
SWIDTH 667 0
DWIDTH 8 0
BBX 6 12 1 -2
BITMAP
00
00
00
00
84
84
84
48
30
20
40
80
ENDCHAR
STARTCHAR C007A
ENCODING -1 122
SWIDTH 667 0
DWIDTH 8 0
BBX 6 12 1 -2
BITMAP
00
00
00
00
FC
08
78
40
80
FC
00
00
ENDCHAR
STARTCHAR C007B
ENCODING -1 123
SWIDTH 667 0
DWIDTH 8 0
BBX 4 12 2 -2
BITMAP
30
40
40
40
40
80
40
40
40
40
30
00
ENDCHAR
STARTCHAR C007C
ENCODING -1 124
SWIDTH 667 0
DWIDTH 8 0
BBX 1 12 3 -2
BITMAP
80
80
80
80
80
80
80
80
80
80
80
80
ENDCHAR
STARTCHAR C007D
ENCODING -1 125
SWIDTH 667 0
DWIDTH 8 0
BBX 4 12 2 -2
BITMAP
C0
20
20
20
20
10
20
20
20
20
C0
00
ENDCHAR
STARTCHAR C007E
ENCODING -1 126
SWIDTH 667 0
DWIDTH 8 0
BBX 6 12 1 -2
BITMAP
64
98
00
00
00
00
00
00
00
00
00
00
ENDCHAR
STARTCHAR C007F
ENCODING -1 127
SWIDTH 667 0
DWIDTH 8 0
BBX 5 12 1 -2
BITMAP
00
18
28
28
20
20
20
20
A0
A0
C0
00
ENDCHAR
ENDFONT
